<svg xmlns="http://www.w3.org/2000/svg" viewBox="0 0 67 67"><defs><style>.cls-1{fill:#ffdb75;stroke:#f6ae2f;stroke-miterlimit:10;stroke-width:3px;}.cls-1,.cls-3{fill-rule:evenodd;}.cls-2,.cls-3{fill:#021c45;}</style></defs><title>smile4selected</title><g id="Layer_2" data-name="Layer 2"><g id="Layer_6" data-name="Layer 6"><path class="cls-1" d="M1.5,33.5C1.5,11,24.69-6.06,48.47,4.91A27.93,27.93,0,0,1,62.08,18.52c11,23.78-6.09,47-28.58,47a32,32,0,0,1-32-32"/><path class="cls-2" d="M33.5,50.39A19.52,19.52,0,0,1,15.78,39a1.24,1.24,0,1,1,2.26-1,17,17,0,0,0,30.92,0,1.24,1.24,0,1,1,2.25,1A19.51,19.51,0,0,1,33.5,50.39Z"/><path class="cls-3" d="M25.85,24.16c2.6,3.42-1.27,7.29-4.69,4.68h0c-2.61-3.42,1.27-7.3,4.69-4.68Z"/><path class="cls-3" d="M45.84,24.15c2.61,3.42-1.25,7.3-4.68,4.7h0C38.55,25.43,42.41,21.55,45.84,24.15Z"/></g></g></svg>