<svg xmlns="http://www.w3.org/2000/svg" viewBox="0 0 67 67"><defs><style>.cls-1{fill:#ffdb75;stroke:#f6ae2f;stroke-miterlimit:10;stroke-width:3px;}.cls-1,.cls-3{fill-rule:evenodd;}.cls-2,.cls-3{fill:#021c45;}</style></defs><title>smile2selected</title><g id="Layer_2" data-name="Layer 2"><g id="Layer_4" data-name="Layer 4"><path class="cls-1" d="M65.5,33.5a32,32,0,1,1-32-32A32,32,0,0,1,65.5,33.5Z"/><path class="cls-2" d="M16.91,49.31a1.17,1.17,0,0,1-.51-.11,1.23,1.23,0,0,1-.61-1.64,19.44,19.44,0,0,1,35.42,0,1.24,1.24,0,0,1-2.25,1,17,17,0,0,0-30.92,0A1.25,1.25,0,0,1,16.91,49.31Z"/><path class="cls-3" d="M26.7,25.72a3.2,3.2,0,1,1-3.2-3.2A3.21,3.21,0,0,1,26.7,25.72Z"/><path class="cls-3" d="M46.7,25.72a3.2,3.2,0,1,1-3.2-3.2A3.21,3.21,0,0,1,46.7,25.72Z"/></g></g></svg>