<svg xmlns="http://www.w3.org/2000/svg" viewBox="0 0 67 67"><defs><style>.cls-1{fill:#fff;stroke:#000;stroke-miterlimit:10;stroke-width:3px;}.cls-1,.cls-3{fill-rule:evenodd;}.cls-2,.cls-3{fill:#021c45;}</style></defs><title>smile1</title><g id="Layer_2" data-name="Layer 2"><g id="objects"><path class="cls-1" d="M65.5,33.5a32,32,0,1,1-32-32A32,32,0,0,1,65.5,33.5Z"/><path class="cls-2" d="M50,47.48a1.23,1.23,0,0,1-.73-.24c-2.76-2-9-3.29-15.86-3.29s-13.1,1.3-15.86,3.29a1.24,1.24,0,1,1-1.46-2c3.21-2.32,9.84-3.76,17.32-3.76s14.11,1.44,17.31,3.76A1.24,1.24,0,0,1,50,47.48Z"/><path class="cls-3" d="M46.63,31.22a3.2,3.2,0,1,1-3.2-3.2A3.2,3.2,0,0,1,46.63,31.22Z"/><path class="cls-2" d="M50.62,27a1.15,1.15,0,0,1-.59-.15l-9.13-5a1.24,1.24,0,0,1,1.19-2.18l9.13,5a1.24,1.24,0,0,1-.6,2.32Z"/><path class="cls-3" d="M20.37,31.22a3.2,3.2,0,1,0,3.2-3.2A3.2,3.2,0,0,0,20.37,31.22Z"/><path class="cls-2" d="M16.38,27a1.24,1.24,0,0,1-.6-2.32l9.12-5a1.24,1.24,0,1,1,1.2,2.18l-9.13,5A1.15,1.15,0,0,1,16.38,27Z"/></g></g></svg>