<svg xmlns="http://www.w3.org/2000/svg" viewBox="0 0 67 67"><defs><style>.cls-1{fill:#fff;stroke:#021c45;stroke-miterlimit:10;stroke-width:3px;}.cls-1,.cls-3{fill-rule:evenodd;}.cls-2,.cls-3{fill:#021c45;}</style></defs><title>smile4</title><g id="Layer_2" data-name="Layer 2"><g id="objects"><path class="cls-1" d="M1.5,33.5a32,32,0,1,1,32,32,32,32,0,0,1-32-32"/><path class="cls-2" d="M33.5,50.39A19.52,19.52,0,0,1,15.78,39a1.24,1.24,0,1,1,2.26-1,17,17,0,0,0,30.92,0,1.24,1.24,0,1,1,2.25,1A19.51,19.51,0,0,1,33.5,50.39Z"/><path class="cls-3" d="M26.7,26.5a3.2,3.2,0,1,1-3.2-3.2A3.2,3.2,0,0,1,26.7,26.5Z"/><circle class="cls-2" cx="43.5" cy="26.5" r="3.2"/></g></g></svg>